<svg id="emoji" xmlns="http://www.w3.org/2000/svg" viewBox="0 0 72 72">
  <g id="color">
    <path fill="#0" d="M22.5252,30.898c-2.3813-1.68-3.9042-4.1204-3.9326-9.0256c-6.2917-12.3683-15.8333-7.6799-19-2.2433 c7.8333,0.9798,4,14.6667,4,14.6667c10-0.5,7.3714,10.1238,7.3714,10.1238c10.087-3.1417,16.7953,6.148,16.7953,6.148 c-1.648,2.36-1.8159,6.5996-0.3112,7.4402s6.6325,4.2642,6.6325,4.2642l4.6115-4.752c0,0,2.1197-2.0094-2.1947-7.0703 c2.5572-5.0901,5.9141-7.7066,11.6354-7.725c1.6323-12.2941,10.176-11.3334,10.176-11.3334 c0.9549-10.5438,8.774-13.0505,8.774-13.0505C59.0926,7.1309,47.0926,16.129,44.797,20.7561 c-0.2883,0.5812-0.3939,6.9192-3.3969,9.5794C36.3207,33.04,31.0574,33.5633,25.5252,30.898z" stroke="none"/>
    <path fill="#0400ff" d="M28.5252,30.898c-2.3813-1.68-3.9042-4.1204-3.9326-9.0256c-6.2917-12.3683-15.8333-7.6799-19-2.2433 c7.8333,0.9798,4,14.6667,4,14.6667c10-0.5,7.3714,10.1238,7.3714,10.1238c10.087-3.1417,16.7953,6.148,16.7953,6.148 c-1.648,2.36-1.8159,6.5996-0.3112,7.4402s6.6325,4.2642,6.6325,4.2642l4.6115-4.752c0,0,2.1197-2.0094-2.1947-7.0703 c2.5572-5.0901,5.9141-7.7066,11.6354-7.725c1.6323-12.2941,10.176-11.3334,10.176-11.3334 c0.9549-10.5438,8.774-13.0505,8.774-13.0505C59.0926,7.1309,47.0926,16.129,44.797,20.7561 c-0.2883,0.5812-0.3939,6.9192-3.3969,9.5794C36.3207,33.04,31.0574,33.5633,25.5252,30.898z" stroke="none"/>
    <path fill="#0400ff" d="M30.4007,35.4677c-3.1856-2.5092-2.6668-6.2877-2.6668-6.2877l0.706-6.3877c0,0,3.373,3.7061,3.448,3.9106 l2.5254,0.2349l3.0896-4.4012c0,0,2.7828,10.0625-0.6418,13.1611" stroke="none"/>
    <path fill="#0400ff" d="M33.4007,35.4677c-3.1856-2.5092-2.6668-6.2877-2.6668-6.2877l0.706-6.3877c0,0,3.373,3.7061,3.448,3.9106 l2.5254,0.2349l3.0896-4.4012c0,0,2.7828,10.0625-0.6418,13.1611" stroke="none"/>
    <path fill="#ff0000" d="M28.5252,30.898c-5.3813-0.68-1.9042-4.1204-1.9326-9.0256c-4.2917-12.3683-15.8333-7.6799-16-2.2433 c5.8333,0.9798,4,14.6667,2,14.6667c8-0.5,7.3714,10.1238,5.3714,10.1238c8.087-3.1417,16.7953,6.148,14.7953,6.148 c-0.648,2.36-1.8159,6.5996-0.3112,5.4402s4.6325,4.2642,4.6325,2.2642l2.6115-4.752c0,0,2.1197-2.0094-1.1947-7.0703 c2.5572-5.0901,3.9141-7.7066,9.6354-7.725c1.6323-12.2941,10.176-11.3334,8.176-11.3334 c0.9549-10.5438,8.774-13.0505,6.774-13.0505C56.0926,7.1309,47.0926,16.129,40.797,20.7561 c-0.2883,0.5812-0.3939,6.9192-1.969,9.5794C36.3207,33.04,31.0574,33.5633,23.5252,30.898z" stroke="none"/>
    <path fill="#ff0000" d="M30.4007,35.4677c-1.1856-2.5092-2.6668-6.2877-1.6668-6.2877l0.706-6.3877c0,0,3.373,3.7061,1.448,3.9106 l2.5254,0.2349l3.0896-4.4012c0,0,2.7828,10.0625-0.6418,13.1611" stroke="none"/>
    
  </g>
  <animateTransform attributeName="transform"
    type="translate"
    from="-520 20"
    to="520 20"
    begin="0s"
    dur="0.01s"
    repeatCount="indefinite">
  <g id="hair"/>
  <g id="skin"/>
  <g id="skin-shadow"/>
  <g id="line">
    <path fill="none" stroke="#0400ff" stroke-width="1" stroke-linecap="round" stroke-linejoin="round" stroke-miterlimit="10" d="M25.7381,31.5162c-2.3813-1.68-3.1171-4.7386-3.1455-9.6438c-6.2917-12.3683-15.8333-7.6799-19-2.2433 c7.8333,0.9798,4,14.6667,4,14.6667c10-0.5,7.3714,10.1238,7.3714,10.1238c10.087-3.1417,16.7953,6.148,16.7953,6.148 c-1.648,2.36-1.8159,6.5996-0.3112,7.4402s6.6325,4.2642,6.6325,4.2642l4.6115-4.752c0,0,2.1197-2.0094-2.1947-7.0703 c2.5572-5.0901,5.9141-7.7066,11.6354-7.725c1.6323-12.2941,10.176-11.3334,10.176-11.3334 c0.9549-10.5438,8.774-13.0505,8.774-13.0505C59.0926,7.1309,47.0926,16.129,44.797,20.7561 c-0.2883,0.5812,0.4585,7.3598-2.5445,10.02"/>
    <path fill="none" stroke="#0400ff" stroke-width="1" stroke-linecap="round" stroke-linejoin="round" stroke-miterlimit="10" d="M31.4007,35.1344c-3.1856-2.5092-2.6668-6.2877-2.6668-6.2877l0.706-6.3877c0,0,3.373,3.7061,3.448,3.9106l2.5254,0.2349 l3.0896-4.4012c0,0,2.7828,10.0625-0.6418,13.1611"/>
    <path fill="none" stroke="#ff0000" stroke-width="1" stroke-linecap="round" stroke-linejoin="round" stroke-miterlimit="10" d="M24.7381,31.5162c-2.3813-1.68-3.1171-4.7386-3.1455-9.6438c-6.2917-12.3683-15.8333-7.6799-19-2.2433 c7.8333,0.9798,4,14.6667,4,14.6667c10-0.5,7.3714,10.1238,7.3714,10.1238c10.087-3.1417,16.7953,6.148,16.7953,6.148 c-1.648,2.36-1.8159,6.5996-0.3112,7.4402s6.6325,4.2642,6.6325,4.2642l4.6115-4.752c0,0,2.1197-2.0094-2.1947-7.0703 c2.5572-5.0901,5.9141-7.7066,11.6354-7.725c1.6323-12.2941,10.176-11.3334,10.176-11.3334 c0.9549-10.5438,8.774-13.0505,8.774-13.0505C59.0926,7.1309,47.0926,16.129,44.797,20.7561 c-0.2883,0.5812,0.4585,7.3598-2.5445,10.02"/>
    <path fill="none" stroke="#ff0000" stroke-width="1" stroke-linecap="round" stroke-linejoin="round" stroke-miterlimit="10" d="M30.4007,35.1344c-3.1856-2.5092-2.6668-6.2877-2.6668-6.2877l0.706-6.3877c0,0,3.373,3.7061,3.448,3.9106l2.5254,0.2349 l3.0896-4.4012c0,0,2.7828,10.0625-0.6418,13.1611"/>
    <br/>
    <br/>
    </g>
    <h1 style="color: red; font-family: courier new; font-size: 60px; font-weight: bold; margin-bottom: -19px">SVG Glitch</h1>
    <h1 style="color: blue; font-family: courier new; font-size: 60px; font-weight: bold; margin-top: -19px">SVG Glitch</h1>
</svg>